<svg xmlns="http://www.w3.org/2000/svg" viewBox="0 0 908.94 908.94"><defs><style>.cls-1{fill:#eb57df;}.cls-2{fill:#cacaca;}.cls-3{fill:#f2f2f2;}.cls-4{fill:#e6e6e6;}.cls-5{fill:#2f2e41;}.cls-6{fill:#ffb8b8;}.cls-7{fill:#3f3d56;}</style></defs><g id="Layer_4" data-name="Layer 4"><circle class="cls-1" cx="454.47" cy="454.47" r="454.47"/><path class="cls-2" d="M718,562.85h0a219.45,219.45,0,0,1-1.84-47.5L718,489.11h0c-10.13,20.16-7.84,46.69,0,73.74Z"/><path class="cls-2" d="M725.94,567.24h0a161,161,0,0,1-.88-28.28l.88-15.61h0C721.07,535.35,722.17,551.14,725.94,567.24Z"/><path class="cls-3" d="M761.06,586.55v8.78a2.64,2.64,0,0,1-2.63,2.63H754a.87.87,0,0,0-.88.88h0v72a2.65,2.65,0,0,1-2.64,2.63H697a2.64,2.64,0,0,1-2.64-2.63v-72a.89.89,0,0,0-.88-.88H688.2a2.64,2.64,0,0,1-2.64-2.63v-8.78a2.63,2.63,0,0,1,2.63-2.63h70.24A2.64,2.64,0,0,1,761.06,586.55Z"/><rect class="cls-4" x="694.42" y="599.81" width="58.82" height="2.63"/><path class="cls-4" d="M753.16,638.56c-19.68,8.14-39.58,8.23-59.7,0V620a93.69,93.69,0,0,1,59.7,0Z"/><circle class="cls-5" cx="470.51" cy="311.42" r="31.95"/><path class="cls-5" d="M479.41,280.35a32,32,0,0,1,28.13,47.11,31.94,31.94,0,1,0-53.07-35.1A31.86,31.86,0,0,1,479.41,280.35Z"/><circle class="cls-5" cx="410.81" cy="217.5" r="93.85"/><path class="cls-5" d="M337.15,159.27a93.83,93.83,0,0,1,130.07-9.84c-.77-.73-1.53-1.47-2.33-2.18A93.85,93.85,0,0,0,340.18,287.54c.8.71,1.62,1.38,2.43,2A93.83,93.83,0,0,1,337.15,159.27Z"/><circle class="cls-6" cx="410.01" cy="250.11" r="60.45"/><path class="cls-2" d="M440.89,327l-64.69,2.91s5.4,33.46-29.59,36.64S279.8,360.14,267.07,384s-7.24,108.83-7.24,108.83,23.86,85.9,42.95,98.62,186.11-4.77,186.11-4.77l69.91-88.26-2.37-68.07c-1.24-35.54-33.69-62.23-68.64-55.65l-2.08.41c-1,.23-7.68-5.73-28.74-16.27C444.08,352.4,440.89,327,440.89,327Z"/><path class="cls-5" d="M300.48,364.92s15.37,27.89,9,67.66,20.33,123.88,20.33,123.88l19.09-4.78s-12.72-82.71-9.54-101.8,4.06-75.42-11.85-85S300.48,364.92,300.48,364.92Z"/><path class="cls-5" d="M484.59,379.54l6.69,176.12,12.73,8s18.29-193.27,8.75-193.27H493.34a8.76,8.76,0,0,0-8.76,8.75h0C484.58,379.24,484.59,379.39,484.59,379.54Z"/><circle class="cls-1" cx="338.57" cy="544.53" r="7.95"/><circle class="cls-1" cx="497.64" cy="552.48" r="7.95"/><polygon class="cls-5" points="358.31 174.55 358.31 235 372.31 235 390.13 215.91 387.74 235 449.62 235 445.8 215.91 453.44 235 463.3 235 463.3 174.55 358.31 174.55"/><ellipse class="cls-6" cx="348.77" cy="237.38" rx="4.77" ry="8.75"/><ellipse class="cls-6" cx="471.26" cy="237.38" rx="4.77" ry="8.75"/><path class="cls-7" d="M603.65,657.69V663a11.95,11.95,0,0,1-1.65,6,11.81,11.81,0,0,1-10.14,5.76h-392a11.79,11.79,0,0,1-10.13-5.76,11.65,11.65,0,0,1-1.65-6v-5.33a11.78,11.78,0,0,1,11.78-11.79h22.6v-2.48a.49.49,0,0,1,.49-.49h11.79a.48.48,0,0,1,.49.49v2.48h7.37v-2.48a.49.49,0,0,1,.49-.49h11.79a.48.48,0,0,1,.49.49v2.48h7.37v-2.48a.49.49,0,0,1,.49-.49H275a.48.48,0,0,1,.49.49v2.48h7.36v-2.48a.49.49,0,0,1,.49-.49h11.79a.48.48,0,0,1,.49.49v2.48H303v-2.48a.49.49,0,0,1,.49-.49H315.3a.48.48,0,0,1,.49.49v2.48h7.38v-2.48a.48.48,0,0,1,.49-.49h11.79a.48.48,0,0,1,.49.49v2.48h7.36v-2.48a.49.49,0,0,1,.49-.49h92.35a.5.5,0,0,1,.5.49h0v2.48H444v-2.48a.49.49,0,0,1,.49-.49h11.79a.49.49,0,0,1,.49.49v2.48h7.37v-2.48a.49.49,0,0,1,.49-.49h11.79a.48.48,0,0,1,.49.49h0v2.48h7.36v-2.48a.49.49,0,0,1,.49-.49h11.8a.48.48,0,0,1,.49.49h0v2.48h7.37v-2.48a.49.49,0,0,1,.49-.49h11.79a.48.48,0,0,1,.48.49v2.48h7.38v-2.48a.49.49,0,0,1,.49-.49h11.79a.48.48,0,0,1,.49.49h0v2.48h7.37v-2.48a.49.49,0,0,1,.49-.49H557a.48.48,0,0,1,.49.49h0v2.48h34.38a11.79,11.79,0,0,1,11.79,11.78Z"/><rect class="cls-7" x="116.8" y="673.05" width="693.9" height="4.77"/><path class="cls-7" d="M572.09,433.29H213a9.88,9.88,0,0,0-9.88,9.88h0V643.24a9.88,9.88,0,0,0,9.88,9.88H572.09a9.88,9.88,0,0,0,9.88-9.88V443.17a9.88,9.88,0,0,0-9.88-9.88Z"/><circle class="cls-1" cx="392.84" cy="503.13" r="21.95"/></g></svg>