<svg id="acfbc938-e2dc-4f86-bbdc-1a249e77319a" xmlns="http://www.w3.org/2000/svg" viewBox="0 0 778.93 779"><defs><style>.cls-1{fill:#eb57df;}.cls-2{fill:#e6e6e6;}.cls-3{fill:#f2f2f2;}.cls-4{fill:#3f3d56;}.cls-5{fill:#ffb8b8;}.cls-6{fill:#fff;}.cls-7{fill:#2f2e41;}.cls-8{fill:#ccc;}</style></defs><circle class="cls-1" cx="389.43" cy="389.5" r="389.5"/><path class="cls-2" d="M548.69,573.79a31.52,31.52,0,0,0,30.44-5.36c10.66-8.95,14-23.69,16.72-37.34l8-40.37-16.84,11.6c-12.11,8.33-24.49,16.94-32.88,29s-12,28.56-5.3,41.63"/><path class="cls-3" d="M550.13,622.66c-1.7-12.41-3.45-25-2.26-37.53,1.06-11.15,4.46-22,11.38-31a51.49,51.49,0,0,1,13.22-12c1.32-.83,2.53,1.26,1.22,2.09a49,49,0,0,0-19.37,23.36c-4.21,10.73-4.89,22.41-4.16,33.81.44,6.88,1.37,13.73,2.31,20.56a1.26,1.26,0,0,1-.85,1.49A1.22,1.22,0,0,1,550.13,622.66Z"/><path class="cls-2" d="M566.55,600.7a23.22,23.22,0,0,0,20.21,10.43c10.24-.49,18.77-7.63,26.45-14.41l22.71-20.06-15-.71c-10.81-.52-21.9-1-32.2,2.33s-19.79,11.36-21.68,22"/><path class="cls-3" d="M545.32,629.8C553.52,615.28,563,599.15,580,594a38.74,38.74,0,0,1,14.6-1.51c1.55.13,1.17,2.52-.38,2.39A36,36,0,0,0,571,601c-6.57,4.48-11.69,10.7-16,17.29-2.65,4-5,8.25-7.4,12.46C546.77,632.13,544.55,631.16,545.32,629.8Z"/><path class="cls-2" d="M343.12,527.82a62.11,62.11,0,0,1-60-10.56c-21-17.64-27.6-46.69-33-73.59q-7.92-39.78-15.85-79.56L267.52,387c23.87,16.44,48.27,33.4,64.8,57.2s23.74,56.3,10.46,82.06"/><path class="cls-3" d="M340.29,624.15c3.35-24.47,6.81-49.25,4.45-74-2.09-22-8.79-43.41-22.43-61a101.38,101.38,0,0,0-26-23.6c-2.6-1.64-5,2.49-2.41,4.12A96.43,96.43,0,0,1,332,515.74c8.31,21.13,9.65,44.17,8.22,66.61-.87,13.58-2.71,27.07-4.55,40.53a2.47,2.47,0,0,0,1.66,2.94,2.41,2.41,0,0,0,2.94-1.67Z"/><path class="cls-2" d="M307.93,580.86a45.73,45.73,0,0,1-39.84,20.56c-20.17-1-37-15-52.12-28.4L171.2,533.49l29.63-1.41c21.31-1,43.17-2,63.46,4.6s39,22.38,42.72,43.39"/><path class="cls-3" d="M349.78,638.22c-16.17-28.61-34.92-60.41-68.43-70.57a76.57,76.57,0,0,0-28.79-3c-3.05.26-2.29,5,.76,4.71a70.92,70.92,0,0,1,45.93,12.15c13,8.82,23,21.08,31.58,34.07,5.22,8,9.91,16.26,14.59,24.55,1.5,2.65,5.87.74,4.36-1.94Z"/><path class="cls-4" d="M225,250.9,85.78,221.74,84,221.36a5,5,0,0,0-5.5,7.14l55.86,111.77a5,5,0,0,0,3.75,2.71,5,5,0,0,0,4.37-1.53l38.1-40.65a2.9,2.9,0,0,1,2.13-.95,3,3,0,0,1,2.69,1.54l7.94,14.48a4.87,4.87,0,0,0,5.49,2.47h0a4.91,4.91,0,0,0,3.84-4.67l1.38-33.55a3,3,0,0,1,.3-1.2,3.1,3.1,0,0,1,.78-1l22-18.29a5,5,0,0,0,.65-7,5.08,5.08,0,0,0-2.81-1.7Zm.89,7.22-22,18.28a4.92,4.92,0,0,0-.78.8,5,5,0,0,0-.88,1.79h0a4.59,4.59,0,0,0-.15,1.05l-1.37,33.54a2.91,2.91,0,0,1-2.31,2.8h0a2.91,2.91,0,0,1-3.3-1.47l-7.94-14.49a5,5,0,0,0-4.11-2.58h-.35a5,5,0,0,0-2.27.58,4.74,4.74,0,0,0-1.3,1L141,340.08a3,3,0,0,1-4.24.13,2.9,2.9,0,0,1-.63-.84L80.25,227.6a3,3,0,0,1,3.31-4.28l1.85.39,139.16,29.15a3,3,0,0,1,1.31,5.26Z"/><path class="cls-4" d="M203.54,277.39l-.82,1.83-.51-.22h0L84.75,226.57,183,297.85h0l.26.19-1.17,1.62-1.71-1.24L83.58,228.19a2,2,0,0,1,1.64-3.58l.33.11L203.09,277.2Z"/><path class="cls-5" d="M505.77,417.13l5.08,49.67.1,1,1.51,14.73,12.4,121.28v0l2.41,23.53a28.53,28.53,0,0,0-2.49,4,28.91,28.91,0,0,0,.84,27.65q9.07-2.28,17.9-5.2A268.33,268.33,0,0,0,579,639.28a28.87,28.87,0,0,0-9.71-16.85L556.88,472.84l-1.09-13.12-3.55-42.59Z"/><circle class="cls-5" cx="494.89" cy="235.36" r="65.75" transform="translate(-21.47 418.87) rotate(-45)"/><path class="cls-6" d="M372.34,506.72l0,.38a12.07,12.07,0,0,0,9.43,10.76l98.12,21.43a12,12,0,0,0,14.18-8.55c.21-.78.44-1.58.69-2.41h0c3.31-11.24,9.22-26.54,17.67-45.77q2.87-6.53,6.13-13.67c.4-.88.81-1.77,1.21-2.66q6.74-14.62,15-31.66a78.55,78.55,0,0,0,6.09-17.43,79.6,79.6,0,0,0-4-47.63,78.59,78.59,0,0,0-4.35-8.95,80,80,0,0,0-63.34-40.31c-2.07-.17-4.13-.25-6.2-.25a80.53,80.53,0,0,0-55.49,22.52A78.53,78.53,0,0,0,388,373.09c-.26.73-.5,1.47-.74,2.21A298.2,298.2,0,0,0,378.38,411c-1.33,7.17-2.41,14.24-3.28,21.13A436.2,436.2,0,0,0,372.34,506.72Z"/><path class="cls-7" d="M329.13,632.36A266.06,266.06,0,0,0,525.62,659q9.07-2.28,17.9-5.2a447.41,447.41,0,0,0-18.66-50v0c-12-27-23.06-43.44-28.44-50.72a9.37,9.37,0,0,1-1.33-8.49l1.67-5a12,12,0,0,0-2-11.28h0l-.35-.42c-43.71-49.8-119.91-22.63-120.68-22.35l-.38.14-.24.33c-.26.36-.52.71-.77,1.08C351.71,536.05,338,580.55,329.13,632.36Z"/><path class="cls-5" d="M239.29,311.73a28.16,28.16,0,0,1,.64,4.39l115,66.34,27.95-16.09,29.8,39L366,438.67a21.41,21.41,0,0,1-25.7-.63L221.69,344.5a28.07,28.07,0,1,1,17.6-32.77Z"/><path class="cls-6" d="M356.68,381.44h0a12.1,12.1,0,0,0,2.08,4.15L378.38,411l9.35,12.13,8.2,10.62a12,12,0,0,0,18.21,1l29.78-30.92,12.29-12.77a33.45,33.45,0,0,0-41-52.86l-7.68,4.29-45.09,25.22A12.07,12.07,0,0,0,356.68,381.44Z"/><path class="cls-6" d="M486.74,397.38l1.88,60.05v.38A12.05,12.05,0,0,0,501,469.48a11.55,11.55,0,0,0,1.77-.19l8.14-1.47,2.08-.38h0l6.76-1.22,36-6.5,6.89-1.24a12.06,12.06,0,0,0,9.71-14,11.05,11.05,0,0,0-.44-1.69L552.54,385.3a33.45,33.45,0,0,0-65.8,12.08Z"/><path class="cls-7" d="M484.48,220.23c-16.89,11.57-39.08,23.46-56.34,11.14-11.33-8.09-14.91-23.06-10.31-36.2,8.26-23.64,31-34,52.68-42,28.23-10.36,59-18.61,88.1-11.19s54.89,35.64,49.63,65.25C604,231,581.56,250.83,584.74,274.8c3.21,24.12,30.34,36.82,54.3,41.13s50.75,5.7,68,22.9c22,21.95,16.48,61.18-4.18,84.35S651,456.86,620.76,464c-40,9.46-83.33,14.43-121.35-1.27s-67.61-58-56.59-97.6c4.65-16.74,15.61-30.89,26.2-44.66s21.32-28.18,25.36-45.08c3.36-14.08.87-30.43-8.47-41a11.9,11.9,0,0,1-1.59-13.89Z"/><path class="cls-6" d="M224.57,252.86,85.41,223.71l-1.85-.39a3,3,0,0,0-3.31,4.28l55.87,111.77a2.9,2.9,0,0,0,.63.84,3,3,0,0,0,4.24-.13l28-29.85a4.44,4.44,0,0,1,1.68-1.79l8.45-9a4.74,4.74,0,0,1,1.3-1,5,5,0,0,1,2.27-.58H183a5,5,0,0,1,4.11,2.58l.11.19a4.86,4.86,0,0,1,1.35,2.47l6.48,11.83a2.91,2.91,0,0,0,3.21,1.49,4.41,4.41,0,0,1,1.5-.75,2.89,2.89,0,0,0,.92-2.07l1.37-33.54a4.59,4.59,0,0,1,.15-1.05h0a5,5,0,0,1,.88-1.79,4.92,4.92,0,0,1,.78-.8l22-18.28h0a3,3,0,0,0-1.31-5.26Z"/><path class="cls-8" d="M225,250.9,85.78,221.74,84,221.36a5,5,0,0,0-5.5,7.14l55.86,111.77a5,5,0,0,0,3.75,2.71,5,5,0,0,0,4.37-1.53l38.1-40.65a2.9,2.9,0,0,1,2.13-.95,3,3,0,0,1,2.69,1.54l7.94,14.48a4.87,4.87,0,0,0,5.49,2.47h0a4.91,4.91,0,0,0,3.84-4.67l1.38-33.55a3,3,0,0,1,.3-1.2,3.1,3.1,0,0,1,.78-1l22-18.29a5,5,0,0,0,.65-7,5.08,5.08,0,0,0-2.81-1.7Zm.89,7.22-22,18.28a4.92,4.92,0,0,0-.78.8L85.55,224.72l-.33-.11a2,2,0,0,0-1.64,3.58l96.81,70.23a4.74,4.74,0,0,0-1.3,1L141,340.08a3,3,0,0,1-4.24.13,2.9,2.9,0,0,1-.63-.84L80.25,227.6a3,3,0,0,1,3.31-4.28l1.85.39,139.16,29.15a3,3,0,0,1,1.31,5.26Z"/></svg>