<svg xmlns="http://www.w3.org/2000/svg" viewBox="0 0 1144 957.82"><defs><style>.cls-1{fill:#eb57df;}.cls-2{fill:#cacaca;}.cls-3{fill:#f2f2f2;}.cls-4{fill:#e6e6e6;}.cls-5{fill:#2f2e41;}.cls-6{fill:#ffb8b8;}.cls-7{fill:#3f3d56;}</style></defs><g id="Layer_4" data-name="Layer 4"><circle class="cls-1" cx="572" cy="478.91" r="454.47"/><path class="cls-2" d="M835.57,587.3h0a219.51,219.51,0,0,1-1.84-47.51l1.84-26.23h0c-10.13,20.16-7.84,46.69,0,73.74Z"/><path class="cls-2" d="M843.47,591.69h0a161,161,0,0,1-.88-28.28l.88-15.62h0C838.6,559.79,839.7,575.59,843.47,591.69Z"/><path class="cls-3" d="M878.59,611v8.78a2.65,2.65,0,0,1-2.63,2.63h-4.39a.87.87,0,0,0-.88.87h0v72a2.65,2.65,0,0,1-2.63,2.64H814.51a2.65,2.65,0,0,1-2.64-2.64v-72a.88.88,0,0,0-.87-.88h-5.27a2.63,2.63,0,0,1-2.63-2.63V611a2.62,2.62,0,0,1,2.62-2.63H876A2.63,2.63,0,0,1,878.59,611Z"/><rect class="cls-4" x="811.95" y="624.26" width="58.82" height="2.63"/><path class="cls-4" d="M870.69,663c-19.68,8.14-39.58,8.23-59.69,0V644.45a93.79,93.79,0,0,1,59.69,0Z"/><circle class="cls-5" cx="588.04" cy="335.86" r="31.95"/><path class="cls-5" d="M596.94,304.79a32,32,0,0,1,28.13,47.12A31.94,31.94,0,1,0,572,316.81,31.87,31.87,0,0,1,596.94,304.79Z"/><circle class="cls-5" cx="528.34" cy="241.95" r="93.85"/><path class="cls-5" d="M454.68,183.71a93.85,93.85,0,0,1,130.07-9.84c-.77-.73-1.53-1.46-2.33-2.17A93.85,93.85,0,0,0,457.71,312c.8.7,1.62,1.37,2.43,2.05A93.84,93.84,0,0,1,454.68,183.71Z"/><circle class="cls-6" cx="527.54" cy="274.55" r="60.45"/><path class="cls-2" d="M558.42,351.41l-64.68,2.91s5.4,33.45-29.6,36.63-66.81-6.36-79.54,17.5-7.24,108.82-7.24,108.82,23.86,85.9,42.95,98.63,186.12-4.77,186.12-4.77l69.9-88.27L674,454.8c-1.24-35.55-33.69-62.23-68.64-55.66l-2.07.42c-1,.22-7.68-5.74-28.75-16.27C561.61,376.85,558.42,351.41,558.42,351.41Z"/><path class="cls-5" d="M418,389.36s15.37,27.9,9,67.67S447.36,580.9,447.36,580.9l19.08-4.77s-12.72-82.72-9.54-101.81,4.06-75.41-11.85-85S418,389.36,418,389.36Z"/><path class="cls-5" d="M602.13,404l6.68,176.12,12.73,7.95s18.29-193.27,8.75-193.27H610.87a8.76,8.76,0,0,0-8.76,8.75h0C602.11,403.69,602.12,403.84,602.13,404Z"/><circle class="cls-1" cx="456.1" cy="568.97" r="7.95"/><circle class="cls-1" cx="615.18" cy="576.93" r="7.95"/><polygon class="cls-5" points="475.85 199 475.85 259.44 489.85 259.44 507.66 240.35 505.27 259.44 567.15 259.44 563.34 240.35 570.97 259.44 580.83 259.44 580.83 199 475.85 199"/><ellipse class="cls-6" cx="466.3" cy="261.83" rx="4.77" ry="8.75"/><ellipse class="cls-6" cx="588.79" cy="261.83" rx="4.77" ry="8.75"/><path class="cls-7" d="M721.18,682.14v5.33a11.65,11.65,0,0,1-1.65,6,11.79,11.79,0,0,1-10.13,5.76h-392a11.81,11.81,0,0,1-10.14-5.76,11.41,11.41,0,0,1-.85-1.76,11.56,11.56,0,0,1-.8-4.27v-5.33a11.78,11.78,0,0,1,11.78-11.79H340v-2.49a.49.49,0,0,1,.49-.49h11.79a.49.49,0,0,1,.49.49v2.49h7.37v-2.49a.49.49,0,0,1,.49-.49h11.79a.49.49,0,0,1,.49.49v2.49h7.38v-2.49a.48.48,0,0,1,.49-.49h11.79a.49.49,0,0,1,.49.49v2.49h7.36v-2.49a.49.49,0,0,1,.49-.49h11.79a.49.49,0,0,1,.5.49v2.49h7.36v-2.49a.49.49,0,0,1,.49-.49h11.79a.49.49,0,0,1,.49.49v2.49h7.38v-2.49a.49.49,0,0,1,.49-.49H453a.49.49,0,0,1,.49.49v2.49h7.37v-2.49a.48.48,0,0,1,.49-.49h92.35a.49.49,0,0,1,.49.49h0v2.49h7.37v-2.49a.49.49,0,0,1,.49-.49h11.79a.5.5,0,0,1,.49.49v2.49h7.37v-2.49a.49.49,0,0,1,.49-.49H594a.49.49,0,0,1,.49.49h0v2.49h7.37v-2.49a.49.49,0,0,1,.49-.49H614.1a.49.49,0,0,1,.49.49h0v2.49H622v-2.49a.49.49,0,0,1,.49-.49h11.79a.5.5,0,0,1,.49.49v2.49h7.37v-2.49a.49.49,0,0,1,.49-.49h11.79a.49.49,0,0,1,.49.49h0v2.49h7.37v-2.49a.49.49,0,0,1,.49-.49h11.79a.49.49,0,0,1,.49.49h0v2.49H709.4a11.78,11.78,0,0,1,11.78,11.78Z"/><rect class="cls-7" x="234.34" y="697.5" width="693.9" height="4.77"/><path class="cls-7" d="M689.62,457.73H330.55a9.89,9.89,0,0,0-9.89,9.89h0V667.69a9.89,9.89,0,0,0,9.89,9.88H689.62a9.88,9.88,0,0,0,9.88-9.88V467.62a9.88,9.88,0,0,0-9.88-9.89Z"/><circle class="cls-1" cx="510.37" cy="527.58" r="21.95"/></g></svg>