<svg id="acfbc938-e2dc-4f86-bbdc-1a249e77319a" xmlns="http://www.w3.org/2000/svg" viewBox="0 0 987 803"><defs><style>.cls-1{fill:#eb57df;}.cls-2{fill:#e6e6e6;}.cls-3{fill:#f2f2f2;}.cls-4{fill:#3f3d56;}.cls-5{fill:#ffb8b8;}.cls-6{fill:#fff;}.cls-7{fill:#2f2e41;}.cls-8{fill:#ccc;}</style></defs><circle class="cls-1" cx="495.5" cy="399.5" r="389.5"/><path class="cls-2" d="M654.76,583.79a31.51,31.51,0,0,0,30.43-5.36c10.66-8.95,14-23.69,16.72-37.34L710,500.72l-16.84,11.6c-12.11,8.33-24.5,16.94-32.88,29s-12,28.56-5.31,41.63"/><path class="cls-3" d="M656.2,632.66c-1.71-12.41-3.46-25-2.26-37.53,1.06-11.15,4.46-22,11.38-31a51.29,51.29,0,0,1,13.21-12c1.32-.83,2.54,1.26,1.22,2.09a49,49,0,0,0-19.36,23.36c-4.22,10.73-4.89,22.41-4.17,33.81.44,6.88,1.37,13.73,2.31,20.56a1.25,1.25,0,0,1-.84,1.49A1.22,1.22,0,0,1,656.2,632.66Z"/><path class="cls-2" d="M672.61,610.7a23.23,23.23,0,0,0,20.22,10.43c10.23-.49,18.76-7.63,26.44-14.41L742,586.66,727,586c-10.81-.52-21.9-1-32.19,2.33s-19.8,11.36-21.68,22"/><path class="cls-3" d="M651.38,639.8c8.2-14.52,17.72-30.65,34.72-35.8a38.81,38.81,0,0,1,14.61-1.51c1.55.13,1.16,2.52-.39,2.39A36,36,0,0,0,677,611c-6.58,4.48-11.69,10.7-16,17.29-2.66,4-5,8.25-7.41,12.46C652.83,642.13,650.61,641.16,651.38,639.8Z"/><path class="cls-2" d="M449.19,537.82a62.1,62.1,0,0,1-60-10.56c-21-17.64-27.6-46.69-33-73.59q-7.92-39.78-15.85-79.56L373.59,397c23.86,16.44,48.27,33.4,64.8,57.2s23.73,56.3,10.46,82.06"/><path class="cls-3" d="M446.35,634.15c3.36-24.47,6.81-49.25,4.46-74-2.09-22-8.8-43.41-22.44-61a101.5,101.5,0,0,0-26-23.6c-2.61-1.64-5,2.49-2.41,4.12a96.48,96.48,0,0,1,38.16,46.05c8.31,21.13,9.64,44.17,8.21,66.61-.87,13.58-2.7,27.07-4.55,40.53a2.48,2.48,0,0,0,1.67,2.94,2.4,2.4,0,0,0,2.93-1.67Z"/><path class="cls-2" d="M414,590.86a45.73,45.73,0,0,1-39.84,20.56c-20.17-1-37-15-52.12-28.4l-44.77-39.53,29.63-1.41c21.31-1,43.16-2,63.46,4.6s39,22.38,42.72,43.39"/><path class="cls-3" d="M455.84,648.22c-16.16-28.61-34.92-60.41-68.43-70.57a76.5,76.5,0,0,0-28.78-3c-3.06.26-2.29,5,.76,4.71a70.93,70.93,0,0,1,45.93,12.15c12.95,8.82,23,21.08,31.57,34.07,5.23,8,9.91,16.26,14.6,24.55,1.49,2.65,5.87.74,4.35-1.94Z"/><path class="cls-4" d="M331.05,260.9l-139.2-29.16-1.81-.38a5,5,0,0,0-5.51,7.14L240.4,350.27a5,5,0,0,0,8.11,1.18l38.1-40.65a2.92,2.92,0,0,1,2.14-.95,3,3,0,0,1,2.69,1.54l7.94,14.48a4.86,4.86,0,0,0,5.48,2.47h0a4.9,4.9,0,0,0,3.85-4.67l1.37-33.55a3.17,3.17,0,0,1,.3-1.2,3.13,3.13,0,0,1,.79-1l22-18.29a5,5,0,0,0,.65-7,5.07,5.07,0,0,0-2.82-1.7Zm.9,7.22-22,18.28a5.31,5.31,0,0,0-.77.8,5.56,5.56,0,0,0-.53.83,4.81,4.81,0,0,0-.35,1h0a4.59,4.59,0,0,0-.15,1.05l-1.38,33.54a2.9,2.9,0,0,1-2.3,2.8h0a2.91,2.91,0,0,1-3.3-1.47l-7.94-14.49a5,5,0,0,0-4.12-2.58h-.35a5,5,0,0,0-2.27.58,5.06,5.06,0,0,0-1.3,1l-38.1,40.65a3,3,0,0,1-4.24.13,2.9,2.9,0,0,1-.63-.84L186.32,237.6a3,3,0,0,1,3.3-4.28l1.85.39,139.17,29.15a3,3,0,0,1,2.32,3.57,3.08,3.08,0,0,1-1,1.69Z"/><path class="cls-4" d="M309.61,287.39l-.82,1.83-.51-.22h0L190.82,236.57l98.24,71.28h0l.26.19-1.17,1.62-1.71-1.24-96.81-70.23a2,2,0,0,1,1.65-3.58l.32.11L309.16,287.2Z"/><path class="cls-5" d="M611.84,427.13l5.08,49.67.1,1,1.51,14.73,12.4,121.28v0l2.41,23.53a28.53,28.53,0,0,0-2.49,4,28.89,28.89,0,0,0,.84,27.65q9.07-2.28,17.9-5.2a269.44,269.44,0,0,0,35.52-14.56,28.87,28.87,0,0,0-9.71-16.85L663,482.84l-1.09-13.12-3.55-42.59Z"/><circle class="cls-5" cx="600.96" cy="245.36" r="65.75" transform="translate(2.52 496.8) rotate(-45)"/><path class="cls-6" d="M478.41,516.72l0,.38a12.07,12.07,0,0,0,9.43,10.76L586,549.29a11.88,11.88,0,0,0,2.59.28,12,12,0,0,0,11.59-8.83c.21-.78.44-1.58.69-2.41h0c3.31-11.24,9.22-26.54,17.67-45.77q2.87-6.53,6.13-13.67c.4-.88.81-1.77,1.21-2.66q6.74-14.62,15-31.66A78.55,78.55,0,0,0,647,427.13a79.67,79.67,0,0,0-4-47.63,78.59,78.59,0,0,0-4.35-8.95,80,80,0,0,0-63.34-40.31c-2.07-.17-4.13-.25-6.2-.25a80.51,80.51,0,0,0-55.49,22.52,78.53,78.53,0,0,0-19.51,30.58c-.26.73-.5,1.47-.74,2.21A298.2,298.2,0,0,0,484.45,421c-1.33,7.17-2.41,14.24-3.28,21.13A436.2,436.2,0,0,0,478.41,516.72Z"/><path class="cls-7" d="M435.2,642.36A266,266,0,0,0,631.69,669q9.07-2.28,17.9-5.2a447.41,447.41,0,0,0-18.66-50v0c-12-27-23.06-43.44-28.44-50.72a9.37,9.37,0,0,1-1.33-8.49l1.67-5a12,12,0,0,0-2-11.28h0l-.35-.42c-43.71-49.8-119.91-22.63-120.68-22.35l-.38.14-.24.33c-.26.36-.52.71-.77,1.08C457.78,546.05,444.05,590.55,435.2,642.36Z"/><path class="cls-5" d="M345.35,321.73a27,27,0,0,1,.64,4.39l115,66.34,27.95-16.09,29.8,39L472,448.67a21.4,21.4,0,0,1-25.69-.63L327.75,354.5a28.15,28.15,0,1,1,17.6-32.77Z"/><path class="cls-6" d="M462.75,391.44h0a11.92,11.92,0,0,0,2.08,4.15L484.45,421l9.35,12.13,8.2,10.62A12,12,0,0,0,518.89,446a11.35,11.35,0,0,0,1.32-1.18L550,413.85l12.29-12.77a33.45,33.45,0,0,0-41-52.86l-7.68,4.29-45.09,25.22A12.07,12.07,0,0,0,462.75,391.44Z"/><path class="cls-6" d="M592.81,407.38l1.88,60.05v.38a12,12,0,0,0,12.41,11.67,11.82,11.82,0,0,0,1.77-.19l8.14-1.47,2.08-.38h0l6.76-1.22,36-6.5,6.89-1.24a12.06,12.06,0,0,0,9.71-14,12.34,12.34,0,0,0-.44-1.69L658.61,395.3a33.45,33.45,0,0,0-65.8,12.08Z"/><path class="cls-7" d="M590.55,230.23c-16.9,11.57-39.09,23.46-56.35,11.14-11.33-8.09-14.9-23.06-10.3-36.2,8.26-23.64,31-34,52.68-42,28.22-10.36,59-18.61,88.1-11.19s54.89,35.64,49.63,65.25c-4.23,23.81-26.69,43.62-23.5,67.59s30.34,36.82,54.29,41.13,50.76,5.7,68,22.9c22,21.95,16.47,61.18-4.19,84.35S757,466.86,726.83,474c-40,9.46-83.33,14.43-121.35-1.27s-67.61-58-56.6-97.6c4.65-16.74,15.61-30.89,26.21-44.66s21.31-28.18,25.35-45.08c3.37-14.08.88-30.43-8.46-41a11.87,11.87,0,0,1-1.59-13.89Z"/><path class="cls-6" d="M330.64,262.86,191.47,233.71l-1.85-.39a3,3,0,0,0-3.3,4.28l55.86,111.77a2.9,2.9,0,0,0,.63.84,3,3,0,0,0,4.24-.13l28-29.85a4.44,4.44,0,0,1,1.68-1.79l8.44-9a5.06,5.06,0,0,1,1.3-1,5,5,0,0,1,2.27-.58h.35a5,5,0,0,1,4.12,2.58l.1.19a4.86,4.86,0,0,1,1.35,2.47l6.49,11.83a2.91,2.91,0,0,0,3.21,1.49,4.27,4.27,0,0,1,1.49-.75,2.89,2.89,0,0,0,.92-2.07l1.38-33.54a4.59,4.59,0,0,1,.15-1.05h0a4.81,4.81,0,0,1,.35-1,5.56,5.56,0,0,1,.53-.83,5.31,5.31,0,0,1,.77-.8l22-18.28h0a3.08,3.08,0,0,0,1-1.69A3,3,0,0,0,330.64,262.86Z"/><path class="cls-8" d="M331.05,260.9l-139.2-29.16-1.81-.38a5,5,0,0,0-5.51,7.14L240.4,350.27a5,5,0,0,0,8.11,1.18l38.1-40.65a2.92,2.92,0,0,1,2.14-.95,3,3,0,0,1,2.69,1.54l7.94,14.48a4.86,4.86,0,0,0,5.48,2.47h0a4.9,4.9,0,0,0,3.85-4.67l1.37-33.55a3.17,3.17,0,0,1,.3-1.2,3.13,3.13,0,0,1,.79-1l22-18.29a5,5,0,0,0,.65-7,5.07,5.07,0,0,0-2.82-1.7Zm.9,7.22-22,18.28a5.31,5.31,0,0,0-.77.8L191.61,234.72l-.32-.11a2,2,0,0,0-1.65,3.58l96.81,70.23a5.06,5.06,0,0,0-1.3,1l-38.1,40.65a3,3,0,0,1-4.24.13,2.9,2.9,0,0,1-.63-.84L186.32,237.6a3,3,0,0,1,3.3-4.28l1.85.39,139.17,29.15a3,3,0,0,1,2.32,3.57,3.08,3.08,0,0,1-1,1.69Z"/></svg>