<svg id="Слой_1" data-name="Слой 1" xmlns="http://www.w3.org/2000/svg" viewBox="0 0 3816.83 2385.52"><defs><style>.cls-1{fill:#ce4dcb;}.cls-2{fill:#fff;}.cls-3{fill:#eb57df;}.cls-4{fill:#f7c9ee;}.cls-5{opacity:0.5;}.cls-6{fill:#cde0fb;}.cls-7{fill:#b1cff2;}.cls-8{fill:#233862;}.cls-9{fill:#ffad76;}.cls-10{fill:#ffb27d;}.cls-11{fill:#ed985f;}.cls-12{fill:#739af0;}.cls-13{fill:#172b4c;}.cls-14{fill:#5486d6;}.cls-15{fill:#2b478b;}.cls-16{fill:#23407a;}.cls-17{fill:#ebf3fa;}.cls-18{fill:#ffbf94;}.cls-19,.cls-20{fill:none;stroke-miterlimit:10;stroke-width:20px;}.cls-19{stroke:#ce4dcb;}.cls-20{stroke:#fff;}</style></defs><path class="cls-1" d="M1219.22,1102.45l570.6-341.6a99.53,99.53,0,0,1,102.21,0l570.6,341.6v556.77l-1243.4-62.35Z"/><rect class="cls-2" x="1326.25" y="855.77" width="1029.35" height="889.56"/><polygon class="cls-3" points="2462.63 1100.92 2462.63 1845.31 1219.22 1845.31 1219.22 1100.92 1840.92 1473.12 2462.63 1100.92"/><path class="cls-1" d="M1219.22,1845.31,1788.73,1437a89.56,89.56,0,0,1,104.38,0l569.52,408.3Z"/><path class="cls-4" d="M2030.72,1011h-375.3a9.94,9.94,0,0,1-9.91-9.91h0a9.94,9.94,0,0,1,9.91-9.91h375.3a9.94,9.94,0,0,1,9.91,9.91h0A9.94,9.94,0,0,1,2030.72,1011Z"/><path class="cls-4" d="M2127.39,1050.76H1558.75a9.93,9.93,0,0,1-9.91-9.9h0a9.94,9.94,0,0,1,9.91-9.91h568.64a9.94,9.94,0,0,1,9.91,9.91h0A9.93,9.93,0,0,1,2127.39,1050.76Z"/><path class="cls-4" d="M2053.65,1174.07H1642.21a7.19,7.19,0,0,1-7.16-7.17h0a7.19,7.19,0,0,1,7.16-7.17h411.44a7.2,7.2,0,0,1,7.17,7.17h0A7.2,7.2,0,0,1,2053.65,1174.07Z"/><path class="cls-4" d="M1683.53,1211.51h-116a7.19,7.19,0,0,1-7.17-7.17h0a7.2,7.2,0,0,1,7.17-7.17h116a7.2,7.2,0,0,1,7.17,7.17h0A7.19,7.19,0,0,1,1683.53,1211.51Z"/><path class="cls-4" d="M1858.49,1211.51H1718.33a7.19,7.19,0,0,1-7.17-7.17h0a7.2,7.2,0,0,1,7.17-7.17h140.16a7.2,7.2,0,0,1,7.17,7.17h0A7.19,7.19,0,0,1,1858.49,1211.51Z"/><path class="cls-4" d="M2128.34,1211.51H1886.05a7.19,7.19,0,0,1-7.17-7.17h0a7.2,7.2,0,0,1,7.17-7.17h242.29a7.2,7.2,0,0,1,7.17,7.17h0A7.19,7.19,0,0,1,2128.34,1211.51Z"/><path class="cls-4" d="M1859.41,1255.05H1634.05a7.2,7.2,0,0,1-7.17-7.17h0a7.19,7.19,0,0,1,7.17-7.17h225.36a7.19,7.19,0,0,1,7.17,7.17h0A7.2,7.2,0,0,1,1859.41,1255.05Z"/><path class="cls-4" d="M2061.81,1255.05h-177.5a7.2,7.2,0,0,1-7.17-7.17h0a7.19,7.19,0,0,1,7.17-7.17h177.5a7.19,7.19,0,0,1,7.17,7.17h0A7.2,7.2,0,0,1,2061.81,1255.05Z"/><g class="cls-5"><polygon class="cls-6" points="1818.7 490.45 1872.3 608.72 1674.76 698.25 1621.16 579.99 1746.73 594.36 1818.7 490.45"/><path class="cls-7" d="M1621.16,580l197.54-89.54L1759.64,590A22,22,0,0,1,1737,600.41Z"/></g><g class="cls-5"><polygon class="cls-6" points="1045.99 1244.31 1074.18 1319.92 947.88 1367.02 919.68 1291.41 996.93 1305.67 1045.99 1244.31"/><path class="cls-7" d="M919.68,1291.41l126.31-47.1-40.87,59.2a13.62,13.62,0,0,1-14.5,5.49Z"/></g><g class="cls-5"><polygon class="cls-6" points="2820.34 812.61 2780.72 961.09 2532.71 894.9 2572.33 746.42 2676.53 853.76 2820.34 812.61"/><path class="cls-7" d="M2572.33,746.42l248,66.19-128.74,46.84A26,26,0,0,1,2663,852Z"/></g><g id="girl_2" data-name="girl 2"><path class="cls-8" d="M2631.57,1156.93s-32.81,2.27-57,61.36c-24.43,59.6,30.21,59,11.8,97s26.5,60.62,40.14,91.71,82.34,106.08,87.78,140.28,66.53-35.56,66.53-35.56,62.1-66.24,39.84-104.72c-36.7-63.43-4.91-77.21-6.06-112.63S2746.18,1119.34,2631.57,1156.93Z"/><path class="cls-9" d="M2613.76,1368.91s-127,55.37-151.16,54.32-172.82-45.29-172.82-45.29l3.79,25.57s114.74,66,154.86,69.74c39.5,3.69,174.55-35.44,187.59-43.71S2651.65,1377.27,2613.76,1368.91Z"/><path class="cls-10" d="M2603.51,1429.62c11.67,8.09,26.31,14.77,44.69,19,68.89,15.91,95.29-42.31,105.2-82.28a59.28,59.28,0,0,0-23.34-7.17c-5-.58-10.21-1-14.55-1.19-7.73-5.92-19.26-30.17-21.81-67.82l-3.24.87-54.29,14.86s2.49,17.25,3.7,33.57c1,12.76,2.6,20.17.19,23.15-4.24.92-8.29,6.31-8.29,6.31a.12.12,0,0,1,0,.06A348.81,348.81,0,0,0,2603.51,1429.62Z"/><path class="cls-11" d="M2636.17,1305.92s2.49,17.24,3.7,33.57c30.76-3.08,45-32.37,50.59-48.43Z"/><path class="cls-10" d="M2627,1322.12s73-4,69.8-49.46,4.06-76.54-42.69-75.89-54.58,18.62-57.19,34S2607.91,1322,2627,1322.12Z"/><path class="cls-12" d="M2774.2,1578.05c6.59-33.7,28.09-168.36,6.59-211.69-7.72-15.57-38-17-71.25-15.6-10.34,6.67-49.76,31.91-65.94,28.76l-.91-.22c-7.62-1.9-9-12-2.63-16.67,0,0-18,3.21-38.42,7.06C2590.09,1371.86,2559,1388,2559,1388s15.68,28.34,38.81,38.12c-3.93,35.18,1.92,50.7,38.41,132,30.84,68.68-4.16,130.52-4.16,130.52s181.54,146,182.55,71.64C2815.32,1704.25,2765.77,1621.13,2774.2,1578.05Z"/><path class="cls-8" d="M2623,1847.27a33.78,33.78,0,0,1-24.28-14.78c-.88-1.31-1.81-2.72-2.81-4.23-20.66-31.28-28.7-127.08-75.18-229.14-11.32-24.85-52-29.31-63-57.4,0,0-27.28-91,52.2-93.73s212.86,253.31,215,280.16C2726.9,1754.16,2777.41,1864.69,2623,1847.27Z"/><path class="cls-13" d="M2307.12,1845.18h113.12s4.23-18-3.2-30.32c-6.57-10.87-4.05-17.06.82-26a44.21,44.21,0,0,1-19.05,3.59c-5.64-.33-11.6-2.89-16.83-5.92-4.87,5.55-25.71,29.18-32.23,33.86C2342.36,1825.66,2309.4,1823.77,2307.12,1845.18Z"/><path class="cls-14" d="M2762.27,1401.66s14.73,133.95-80.76,162-122.59-123.25-45.49-134.14S2762.27,1401.66,2762.27,1401.66Z"/><path class="cls-8" d="M2455.11,1474.31c-6.81,51.06-33.41,212.25-80.33,290.88-15.13,25.35,38.11,39.57,38.4,39.49,7.14-1.87,19-13.25,24.52-18.19,38.09-34.33,115.43-131.55,115.43-209.49,0-38,.66-110.58-27-129C2509.14,1436.61,2457.82,1454,2455.11,1474.31Z"/><path class="cls-15" d="M2690.47,1845.18s-4.2-5.84-11.51-16.92c-8.7-13.17-18.32-39.11-30-72.35-12.27-34.89-26.83-77.82-45-122.49-5.61-13.79-11.57-27.74-17.91-41.67-11.33-24.85-42.47-21.42-53.55-49.51,0,0-43.24-97.37,36.24-100.06s230.5,260.48,239.18,286C2817.4,1756.05,2863.76,1871.91,2690.47,1845.18Z"/><path class="cls-8" d="M2390.16,1845.18h113.12s4.23-18-3.2-30.32c-6.57-10.87-4-17.06.82-26a44.21,44.21,0,0,1-19.05,3.59c-5.64-.33-11.6-2.89-16.83-5.92-4.87,5.55-25.71,29.18-32.23,33.86C2425.4,1825.66,2392.44,1823.77,2390.16,1845.18Z"/><path class="cls-16" d="M2649,1755.91c-12.27-34.89-26.83-77.82-45-122.49,4.75-33.84,15-63.45,32.23-75.38C2636.17,1558,2678,1687.55,2649,1755.91Z"/><path class="cls-15" d="M2521.15,1470.69c-6.82,51.06-16.41,215.87-63.33,294.5-15.13,25.35,38.11,39.57,38.4,39.49,7.14-1.87,19-13.25,24.52-18.19,38.09-34.33,115.43-131.55,115.43-209.49,0-38-44.6-107.54-72.24-126C2546.91,1439.66,2523.85,1450.41,2521.15,1470.69Z"/><path class="cls-17" d="M2381.08,1336.76s-5.79-14.72-16.33-13.76-106.34,13.76-106.34,13.76,11.15,2.67,15.36,10L2318,1477h113.34Z"/><path class="cls-18" d="M2753.4,1366.36s-160.56,59.13-184.68,57.92c-15.59-.78-145.2-46.34-145.2-46.34l-11.64,22S2538,1481,2572.71,1480.63c68.47-.79,184-42.82,197.05-51.09S2791.29,1374.72,2753.4,1366.36Z"/><path class="cls-18" d="M2423.52,1377.94s-11.64-17.91-23.22-18.44-31.6,7.9-38.45,9.22-26.33,7.64-20.54,17.12,32.65,11.58,44.24,9.47,26.33,4.64,26.33,4.64Z"/><path class="cls-18" d="M2403.45,1360.06s-18.43-8.45-23.69-10-4.22,0-2.64,5,11.06,9.75,11.06,11.32S2403.45,1360.06,2403.45,1360.06Z"/><path class="cls-2" d="M2613.31,1296s6.91-2.73,26.33-1.15c0,0-1,7.57-15.36,8.32C2616.17,1303.59,2613.31,1296,2613.31,1296Z"/><path class="cls-12" d="M2670.68,1395.52s14.36,45.46,63.68,55.81c0,0,81.44-25.1,40.89-80.58C2775.25,1370.75,2735.16,1341,2670.68,1395.52Z"/><path class="cls-2" d="M2258.41,1336.76s-10.64,4.07-2.59,17.88l103.56-13.81s-3.6-16,4.53-17.75Z"/><path class="cls-9" d="M2295.52,1370.75c2.45-9.84,2.3-12.22-3.26-18.24-3.68-4-9.31,5.88-12.22,11.83-1.07-2.63-2.89-6.9-3.51-7.11-.9-.31,1.24,13.23,1.24,13.23h0a15.81,15.81,0,0,0-.06,1.69h0s-4.49,19.9,15.09,30.66l-3.74-11C2291.32,1391.45,2293,1380.74,2295.52,1370.75Z"/><path class="cls-8" d="M2624.21,1206.81s15.39-5.39,22.85,10.33,9.81,53.31,39.7,56.38,31-63.67,31-63.67L2643,1180.32l-39.49,24.93Z"/><path class="cls-8" d="M2624.21,1206.81s-16.85.36-20.7,14.55,2.16,40.66-7.17,42.57-17.81-44.1.23-59.06S2624.21,1206.81,2624.21,1206.81Z"/></g><rect class="cls-2" x="1133.48" y="1846.43" width="1760.85" height="6.56" rx="3.28"/><rect class="cls-19" x="817.34" y="228.03" width="2394.18" height="2000.9"/><rect class="cls-20" x="661.46" y="82.42" width="2394.18" height="2000.9"/></svg>