<svg xmlns="http://www.w3.org/2000/svg" xmlns:xlink="http://www.w3.org/1999/xlink" viewBox="0 0 2995.77 2467.38"><defs><style>.cls-1{mask:url(#mask);filter:url(#luminosity-noclip-2);}.cls-19,.cls-2,.cls-20{mix-blend-mode:multiply;}.cls-2,.cls-22{fill:url(#linear-gradient);}.cls-3{isolation:isolate;}.cls-4{fill:#466eb6;}.cls-5{fill:#001333;}.cls-6{fill:#13375b;}.cls-20,.cls-7{fill:#4e7fc6;}.cls-8{fill:#1d2f49;}.cls-9{fill:#f48c7f;}.cls-10{fill:#d3d9f4;}.cls-11{fill:#b9c5ef;}.cls-12{fill:#f7a491;}.cls-13{fill:#f47458;}.cls-14{fill:#ce4dcb;}.cls-15{fill:#eb57df;}.cls-16{fill:#fff;}.cls-17{fill:#0e283d;}.cls-18{fill:#ced3f1;}.cls-19{fill:#daeef7;}.cls-20,.cls-22{opacity:0.5;}.cls-21{mask:url(#mask-2);}.cls-23{opacity:0.2;}.cls-24,.cls-25{fill:none;stroke-miterlimit:10;stroke-width:20px;}.cls-24{stroke:#ce4dcb;}.cls-25{stroke:#fff;}.cls-26{filter:url(#luminosity-noclip);}</style><filter id="luminosity-noclip" x="1218.95" y="-9192" width="548.46" height="32766" filterUnits="userSpaceOnUse" color-interpolation-filters="sRGB"><feFlood flood-color="#fff" result="bg"/><feBlend in="SourceGraphic" in2="bg"/></filter><mask id="mask" x="1218.95" y="-9192" width="548.46" height="32766" maskUnits="userSpaceOnUse"><g class="cls-26"/></mask><linearGradient id="linear-gradient" x1="1218.95" y1="1154.17" x2="1767.41" y2="1154.17" gradientUnits="userSpaceOnUse"><stop offset="0" stop-color="#fff"/><stop offset="0.06" stop-color="#dadada"/><stop offset="0.16" stop-color="#a7a7a7"/><stop offset="0.26" stop-color="#7b7b7b"/><stop offset="0.37" stop-color="#555"/><stop offset="0.47" stop-color="#363636"/><stop offset="0.59" stop-color="#1e1e1e"/><stop offset="0.71" stop-color="#0d0d0d"/><stop offset="0.84" stop-color="#030303"/><stop offset="1"/></linearGradient><filter id="luminosity-noclip-2" x="1218.95" y="947.98" width="548.46" height="412.39" filterUnits="userSpaceOnUse" color-interpolation-filters="sRGB"><feFlood flood-color="#fff" result="bg"/><feBlend in="SourceGraphic" in2="bg"/></filter><mask id="mask-2" x="1218.95" y="947.98" width="548.46" height="412.39" maskUnits="userSpaceOnUse"><g class="cls-1"><polygon class="cls-2" points="1218.95 1048.01 1317.84 1359.86 1767.41 1360.36 1297.19 947.98 1218.95 1048.01"/></g></mask></defs><g class="cls-3"><g id="Layer_1" data-name="Layer 1"><rect class="cls-4" x="539.53" y="384.95" width="623.65" height="854.15"/><rect class="cls-5" x="575.91" y="421.7" width="550.66" height="779.74"/><rect class="cls-6" x="1058.73" y="1394.4" width="19.27" height="604.77"/><rect class="cls-7" x="688.17" y="1510.12" width="321.37" height="488.57" transform="translate(1697.72 3508.82) rotate(180)"/><rect class="cls-6" x="688.17" y="1642.75" width="321.37" height="10.33" transform="translate(1697.72 3295.83) rotate(180)"/><rect class="cls-6" x="688.17" y="1820.72" width="321.37" height="10.33" transform="translate(1697.72 3651.78) rotate(180)"/><rect class="cls-6" x="575.38" y="1510.12" width="112.8" height="488.57" transform="translate(1263.55 3508.82) rotate(180)"/><rect class="cls-8" x="565.28" y="1481" width="460.76" height="34.23" rx="16.23" transform="translate(1591.31 2996.24) rotate(180)"/><path class="cls-7" d="M2320.84,1897.49h3.73a219.65,219.65,0,0,1,7.95-40.94c16.27-54.9,9.15-62,36.6-96.32s29.48-105.47,29.48-105.47,13.21-80.82,0-116.4-14.23-71.16-46.26-108.77c0,0-6.1,50.32-13.72,73.19s-14.86,44.73-9.21,99.62,9.16,59.47,10.46,73.71-.74,74.22,2.31,84.12-17.79,78.52-19.32,108C2322.41,1877.09,2321.58,1887.19,2320.84,1897.49Z"/><path class="cls-4" d="M2332.53,1897.49c5.3-12.21,14.62-24.35,30.94-31.64,42.7-19.06,71.5-18.64,91.32-64.38s19.83-108.26,26.69-121.23c0,0-18.3-3-36.6,29.74s-30.71,57.18-41.27,76.24-25.82,13.72-38.78,28.21c-10.86,12.14-20.89,40.38-24.71,54.72a55.93,55.93,0,0,1-5.41,13.33c-2.16,3.81-4.7,8.45-6.22,11.75a18.63,18.63,0,0,0-1,3.26Z"/><path class="cls-7" d="M2212.06,1680.68c-3,39.14,21.85,36.09,22.87,61s33.55,67.1,48.62,97.08c7.84,15.6,10.73,39.45,11.7,58.74h12.11c-4.68-48.83-24.5-82.83-36.34-110.07-15.25-35.07-17.54-51.08-4.57-78.53s-6.1-98.35,12.35-130,9-81.23,4.75-100.29.43-32,4.24-52.12-4.24-49.28-4.24-49.28c-.69,24.9-19.65,59-33.37,80.81s-39.65,81.33-36.6,108.27,1.53,29,1.53,29C2205.45,1631.38,2215.11,1641.54,2212.06,1680.68Z"/><path class="cls-4" d="M2284.71,1865.69c1.56,4.67,6.55,16.6,11.12,31.8h7.42c-3.38-19.35-9.21-41.8-19.05-54.67-19.82-25.92-59.47-37.11-64-55.91s.51-75.23-28.47-106.74c0,0,4.07,35.08,0,44.48s-38.62,53.11-18.29,89.71,66.07,32,80.3,40.15S2282.17,1858.07,2284.71,1865.69Z"/><path class="cls-4" d="M2266.41,1696.91c-.51,37.61,29,51.85,28.46,72.69s6.1,43.2,11.7,60c3.53,10.62,1.58,40.18.95,67.92h8.18c2.06-20.38,4.32-49.8,3.57-62.83-1-17.79,7.12-32,8.14-63s7.62-59-6.1-98.1-11.19-85.9-68.62-129.1c0,0-10.17,45.74-2.54,70.65S2266.92,1659.3,2266.41,1696.91Z"/><path class="cls-6" d="M2324.6,1865.4h-78.73a8.35,8.35,0,0,0-8.11,10.28l28.7,121a8.34,8.34,0,0,0,8.11,6.42h94.57a8.34,8.34,0,0,0,8.11-6.42l28.7-121a8.35,8.35,0,0,0-8.11-10.28Z"/><path class="cls-5" d="M1771,1393.53H1046.33c-8.49,0-15.36-7.46-15.36-16.65h0c0-9.2,6.87-16.65,15.36-16.65H1771c8.49,0,15.36,7.45,15.36,16.65h0C1786.32,1386.07,1779.45,1393.53,1771,1393.53Z"/><path class="cls-6" d="M2025.13,1106.74c5-47.22-21.92-90.81-66.23-103.71-2.38-26.34-15.67-51.66-35.83-67.82-39.78-31.88-108.86-44.47-130.87,3.53-33.17,23-56.54,68-42.17,105.38-30.56,38-11.29,99.23,41.35,123.73,3.14,38.85,28,75.27,64.25,88.34,8.71,3.13,22.27,7.36,24.09,8.91-2.37-1.78,33.11,71.24,116,27.79C2080.2,1248.55,2087.24,1147.12,2025.13,1106.74Z"/><path class="cls-5" d="M1902.89,1954.84h-33a17.66,17.66,0,0,0-17.66,17.66h0a17.66,17.66,0,0,0,17.66,17.65h33a17.65,17.65,0,0,0,17.65-17.65h0A17.66,17.66,0,0,0,1902.89,1954.84Z"/><path class="cls-5" d="M1899.56,1979.17l-31.12-.13c4.11-135.79,7.72-342,.86-353.59a5,5,0,0,0,2.07,1.56l25.26-6.59c4.08,2.06,6.54,3.29,7.4,61,.43,29.72.27,70.76-.5,122C1902.22,1890.63,1899.59,1978.29,1899.56,1979.17Z"/><path class="cls-6" d="M2011.37,1972.52H1761.51c-11.51,0-20.84,10-20.84,22.43h0a3.79,3.79,0,0,0,3.65,3.92h284.25a3.78,3.78,0,0,0,3.64-3.92h0C2032.21,1982.56,2022.88,1972.52,2011.37,1972.52Z"/><path class="cls-9" d="M1568.58,1324.44l165.11-46s34.79-46.73,79.54-109.41c14.64,14.48,22.77,36.73,37.51,51.08L1741.44,1341a20.84,20.84,0,0,1-15.42,6.87l-151.73.51-51.92,4.14v-33.23Z"/><path class="cls-10" d="M1806.28,1289.39s56.67-58.1,71.25-83.35-9.93-8.81-35-15.45c-9.48-2.51-7.08-58.08-25-40-29.41,29.63-66.38,81.45-66.38,81.45Z"/><path class="cls-11" d="M1886.85,1125.08s50.85-10,74.06,9.35-5,191.78-5,220.35,15.94,109.32,15.94,109.32-154.14,27-178.62-15.92c0,0-7-163.44-5.93-184s23.89-104.61,30.21-113.61S1886.85,1125.08,1886.85,1125.08Z"/><path class="cls-12" d="M1887.17,1046.42s.27,1.52.75,4.11c2.3,12.41,11.19,53.58,17.19,64.9,7.25,13.68-24.83,57.32-55.7,52-9.19-1.58,7.77-40.09,6.95-44.17-1.56-7.8-3.68-18.46-5.84-29.38-1.22-6.16-2.46-12.4-3.62-18.27l-6-30.33Z"/><path class="cls-13" d="M1887.92,1050.53c-.48-2.59-.75-4.11-.75-4.11l-46.27-1.15,6,30.33c1.16,5.83,2.38,12,3.6,18.17,7.14-1,14.61-4.51,22.09-11a58.24,58.24,0,0,0,16.73-24.84C1888.75,1055,1888.27,1052.45,1887.92,1050.53Z"/><path class="cls-9" d="M1702,1857.48s46.79,56.1,47.1,61-1.86,58.16-7.42,63-15.41,9.24-10.15,14.73c4,4.15,28,2.36,48.27,1.25,5.91-.33,13.32-47.49,15.66-54.42,3.41-10.07,11.67-32.75,8.58-39.77-1.5-3.42-8.71-10.44-18.86-17-10.68-6.9-51.54-63.74-51.54-63.74Z"/><path class="cls-11" d="M1784.54,1886s-31.41,88.45-43.71,92.72c-3.26,1.14-5.22,4-8.18,10.94-.89,2.09,0,9.06,0,9.06h51.77s8.29-39,11.56-56.1c0,0,17.33-41.84,15.41-45.64S1784.54,1886,1784.54,1886Z"/><path class="cls-12" d="M1421.79,1884.42s-38.21,53.79-34.85,70.81c1.8,9.11,9.82,21,5.22,29.61s-9.86,10.72-9.86,10.72l-119.18,1.92c-6.49.1-2.2-4.07,3-7.91,8.57-6.29,15.49-10.44,42.86-23.66,1.78-.86,8.28-5,10.62-6.41,5.94-3.62,11.91-9.32,17-15,8.56-9.51,46.19-87,46.19-87Z"/><path class="cls-11" d="M1319.65,1959.49c31.52,8.07,54.82,2.58,67.85-2.66,3.36,9.51,7.82,21.43,5.46,28.31-2.9,8.42-7,10.32-10.66,10.42-28.79.75-105.46,1.78-127.41,2.07a3.58,3.58,0,0,1-2.79-5.89C1257.55,1985.25,1317.3,1960.92,1319.65,1959.49Z"/><path class="cls-14" d="M1560,1552.58s47.31,54,59.37,62.55,127.87,221.79,127.87,221.79L1706,1867.05s-103.5-129-152.1-198.08c-41.1-58.36-26-54.66-50.13-90.18a47.47,47.47,0,0,1,7.26-61.88q3.27-3,7.13-6.18c35.77-29.81,281-63.37,281-63.37L1956,1462.72S1827.82,1552.58,1823,1555s-177,27.5-180.55,27.5S1560,1552.58,1560,1552.58Z"/><path class="cls-15" d="M1971.9,1464.1s26.9,80.71-13.45,118.37-280.09,33.48-359,33.48c0,0-32.29,88.48-35.88,102.83s-160.22,199.68-160.22,199.68l-43-27.5s168.59-327.62,181.74-342,200.88-71.74,247.51-84.89S1971.9,1464.1,1971.9,1464.1Z"/><path class="cls-12" d="M1660,1318.9l143.16-31.67s51.78-66.52,101.5-123.78c14.63,14.49,22.76,36.74,37.5,51.08l-109.3,120.89c-3.94,4.36-13.13,12.27-19,12.29H1665.12l-51.37-.77v-33.23Z"/><path class="cls-10" d="M1897.66,1283.86s56.67-58.11,71.25-83.35,3.77-67.54-21.27-74.18-105.08,100.15-105.08,100.15Z"/><path class="cls-5" d="M1742.83,1624.23l14.45-60.14a97.54,97.54,0,0,1,90.57-74.4l183-7.4,5.64-18.63-189.36,7.66a116,116,0,0,0-107.7,88.48l-15.35,63.9C1729.25,1623.92,1735.59,1624.09,1742.83,1624.23Z"/><path class="cls-4" d="M1988.25,1592.2s-251.38,4.3-277.59,0-37.55,28.55-29.72,45.76,29.33,23.86,61,25.43,295.32,9,302.75,1.95c6.07-5.75,86-279,115.07-378.91a37.69,37.69,0,0,0-25.61-46.7h0a37.72,37.72,0,0,0-46.72,25.26Z"/><path class="cls-12" d="M1846.11,948.1s22.63-2.62,36.81,15.77,29.47,75.24-5.76,106.16-70.05-4.08-75.21-41.18S1794.78,946.76,1846.11,948.1Z"/><path class="cls-6" d="M1843.58,942s30.23,54.07,51.86,56.56,24.46,31.23,24.46,31.23-7.73-66.2-29.14-79S1843.58,942,1843.58,942Z"/><path class="cls-12" d="M1889.77,1012.18c-1.76,9.6,1.77,18.41,7.9,19.67s12.51-5.5,14.27-15.11-1.78-18.4-7.91-19.66S1891.52,1002.58,1889.77,1012.18Z"/><path class="cls-15" d="M1317.91,1165.19h230.68a15,15,0,0,1,13.91,9.34l71,173.23H1760.7a6.43,6.43,0,0,1,6.44,6.43h0a6.44,6.44,0,0,1-6.44,6.44H1398.76a25.26,25.26,0,0,1-23-14.92l-71.52-159.31A15,15,0,0,1,1317.91,1165.19Z"/><path class="cls-16" d="M1442.11,1266.07c1.56,7.78,8.34,13,15.16,11.62s11.07-8.77,9.51-16.56-8.34-13-15.16-11.62S1440.55,1258.29,1442.11,1266.07Z"/><rect class="cls-6" x="1068.37" y="1610.3" width="671.53" height="20.48" transform="translate(2808.27 3241.08) rotate(180)"/><rect class="cls-6" x="1729.82" y="1394.4" width="19.27" height="604.77"/><rect class="cls-5" x="472.48" y="1998.7" width="2034.14" height="9.13"/><path class="cls-10" d="M1289.72,1002.89a23.2,23.2,0,1,1-23.2-23.2A23.2,23.2,0,0,1,1289.72,1002.89Z"/><path class="cls-15" d="M613.36,1443.89H607.1a6.16,6.16,0,0,1,3.7-1.23H767.57a14.71,14.71,0,0,1,14.85,14.56v9.24A14.71,14.71,0,0,1,767.57,1481l-155,0Z"/><path class="cls-17" d="M702.36,1442.69a14.06,14.06,0,0,1,14.2,13.92v10.46a14.07,14.07,0,0,1-14.2,13.92H604.77v-2.34h.4l24.81-2.3,5-19.29s-9.68-10.66-10.31-10.93-19.52-1.11-19.52-1.11h-.4v-2.33Z"/><path class="cls-18" d="M611.1,1461.77c0-11.27-6-16.74-6-16.74h95.21a12.92,12.92,0,0,1,13,12.79v8a12.92,12.92,0,0,1-13,12.79H605.15S611.1,1476,611.1,1461.77Z"/><path class="cls-19" d="M713.41,1457.82v8a12.91,12.91,0,0,1-.38,3.07c-3.22-7.7-9.37-15.12-21.09-17.51-27.35-5.57-86.79-6.39-86.79-6.39h95.21A12.92,12.92,0,0,1,713.41,1457.82Z"/><path class="cls-7" d="M603,1413.2h-6.26a7.13,7.13,0,0,1,3.7-1H757.28c8.21,0,14.86,5.18,14.86,11.56v7.34c0,6.38-6.65,11.55-14.86,11.55l-155.07,0Z"/><path class="cls-8" d="M692.05,1412.24c7.85,0,14.21,5,14.21,11v8.29c0,6.1-6.36,11.05-14.21,11.05H594.42v-1.85h.41l24.82-1.83,5-15.31s-9.68-8.45-10.31-8.67-19.52-.88-19.52-.88h-.41v-1.85Z"/><path class="cls-18" d="M600.75,1427.38a16.85,16.85,0,0,0-5.94-13.28h95.24c7.21,0,13.05,4.54,13.05,10.15v6.38c0,5.6-5.84,10.15-13.05,10.15H594.81S600.75,1438.65,600.75,1427.38Z"/><path class="cls-19" d="M703.1,1424.25v6.38a7.92,7.92,0,0,1-.38,2.43c-3.21-6.11-9.37-12-21.09-13.89-27.36-4.42-86.82-5.07-86.82-5.07h95.24C697.26,1414.1,703.1,1418.64,703.1,1424.25Z"/><path class="cls-6" d="M797.37,1397.31h137a10.45,10.45,0,0,1,10.45,10.45v62.77A10.45,10.45,0,0,1,934.42,1481h-137a10.44,10.44,0,0,1-10.44-10.44v-62.78A10.45,10.45,0,0,1,797.37,1397.31Z" transform="translate(1731.79 2878.28) rotate(180)"/><rect class="cls-7" x="802.78" y="1397.31" width="157.94" height="83.67" rx="10.45" transform="translate(1763.49 2878.28) rotate(180)"/><path class="cls-20" d="M822.88,1412.28H943.49a4.91,4.91,0,0,1,4.91,4.91v29.54a4.91,4.91,0,0,1-4.91,4.91H822.88a4.91,4.91,0,0,1-4.91-4.91V1417.2A4.92,4.92,0,0,1,822.88,1412.28Z" transform="translate(1766.36 2863.93) rotate(180)"/><path class="cls-15" d="M846.14,1445.42a4.8,4.8,0,0,1-4.8-4.8v-16.43h.07a4.78,4.78,0,0,1,4.73-4.8h2.73a2.06,2.06,0,0,1,0,4.11H846.2a.63.63,0,0,0-.48.21.66.66,0,0,0-.2.48h-.07v16.43a.66.66,0,0,0,.2.48.64.64,0,0,0,.49.21h5.47a.72.72,0,0,0,.69-.69v-16.43a.63.63,0,0,0-.06-.27,2.17,2.17,0,0,1-.16-.78,2.23,2.23,0,0,1,.16-.79,2,2,0,0,1,1.11-1.11,2.06,2.06,0,0,1,.79-.16,2,2,0,0,1,.79.16,2,2,0,0,1,1.12,1.11,7,7,0,0,1,.27.89,5,5,0,0,1,.09,1v16.43a4.81,4.81,0,0,1-4.8,4.8Zm5.47-1.37a3.45,3.45,0,0,0,3.43-3.43v-16.43a3.08,3.08,0,0,0-.07-.68,3.28,3.28,0,0,0-.19-.63.69.69,0,0,0-.37-.38.85.85,0,0,0-.26,0,.8.8,0,0,0-.26,0,.71.71,0,0,0-.38.38.75.75,0,0,0,0,.26.85.85,0,0,0,0,.26,1.68,1.68,0,0,1,.12.38,2.71,2.71,0,0,1,0,.41v16.43a2.07,2.07,0,0,1-2.06,2.06h-5.47a2.07,2.07,0,0,1-2.06-2.06v-16.43h.07a2,2,0,0,1,.59-1.45,2,2,0,0,1,1.4-.61h2.73a.66.66,0,0,0,.48-.2.63.63,0,0,0,.21-.48.67.67,0,0,0-.21-.49.66.66,0,0,0-.48-.2H846.2a3.41,3.41,0,0,0-3.42,3.43h-.07v16.43a3.43,3.43,0,0,0,3.43,3.43Z"/><path class="cls-15" d="M873.53,1445.42a2,2,0,0,1-1.46-.6,2,2,0,0,1-.6-1.45v-8.23a.65.65,0,0,0-.2-.48.66.66,0,0,0-.48-.2h-5.48a4.78,4.78,0,0,1-4.79-4.79v-8.22a2,2,0,0,1,.6-1.46,2.05,2.05,0,0,1,2.9,0,2,2,0,0,1,.6,1.46v8.22a.7.7,0,0,0,.69.68h5.48a4.8,4.8,0,0,1,4.8,4.79v8.23a2,2,0,0,1-.61,1.45A2,2,0,0,1,873.53,1445.42Zm0-1.37a.66.66,0,0,0,.48-.2.65.65,0,0,0,.2-.48v-8.23a3.41,3.41,0,0,0-3.42-3.42h-5.48a2,2,0,0,1-2-2v-8.22a.67.67,0,0,0-.21-.49.68.68,0,0,0-1.16.49v8.22a3.41,3.41,0,0,0,3.42,3.42h5.48a2,2,0,0,1,2.05,2.05v8.23a.68.68,0,0,0,.69.68Zm2.06-12.78a6.06,6.06,0,0,0-1.38-1.25v-8.57a.68.68,0,0,0-.68-.69.68.68,0,0,0-.69.69v8.22h-1.37v-8.22a2,2,0,0,1,2.06-2.06,2.07,2.07,0,0,1,2.06,2.06Z"/><path class="cls-15" d="M881.75,1429a2,2,0,0,1-2.06-2.06,2,2,0,0,1,.6-1.45,2,2,0,0,1,1.46-.6,2,2,0,0,1,2,2.05,2,2,0,0,1-.6,1.46A2,2,0,0,1,881.75,1429Zm0,11a2,2,0,0,1-1.46-.6,2.06,2.06,0,0,1,1.46-3.51,2.07,2.07,0,0,1,2,2.06,2,2,0,0,1-2,2Zm0-12.33a.66.66,0,0,0,.48-.2.63.63,0,0,0,.2-.49.64.64,0,0,0-.24-.48.66.66,0,0,0-.44-.2.68.68,0,0,0-.69.68.66.66,0,0,0,.2.49A.7.7,0,0,0,881.75,1427.61Zm0,11a.66.66,0,0,0,.48-.2.65.65,0,0,0,.2-.48.79.79,0,0,0-.68-.69.67.67,0,0,0-.49.21.64.64,0,0,0-.2.48.68.68,0,0,0,.69.68Z"/><path class="cls-15" d="M899.23,1445.63a2,2,0,0,1-.79-.16.75.75,0,0,0-.26,0H892.7a4.8,4.8,0,0,1-4.79-4.8v-5.48a4.78,4.78,0,0,1,4.79-4.79h5.48a.66.66,0,0,0,.48-.2.65.65,0,0,0,.2-.48v-5.48h-.06a.72.72,0,0,0-.69-.69H890a2,2,0,0,1-2.05-2,2,2,0,0,1,.6-1.46,2,2,0,0,1,1.45-.6h8.22a4.82,4.82,0,0,1,4.73,4.8H903v5.48a4.8,4.8,0,0,1-4.8,4.79H892.7a.7.7,0,0,0-.69.68v5.48a.72.72,0,0,0,.69.69h5.48a4.32,4.32,0,0,1,1,.1,5.24,5.24,0,0,1,.88.26,2,2,0,0,1,1.12,1.11,2.06,2.06,0,0,1,.16.79,2,2,0,0,1-.16.79,2,2,0,0,1-1.12,1.11A2,2,0,0,1,899.23,1445.63Zm0-1.38a.6.6,0,0,0,.26,0,.62.62,0,0,0,.37-.37.7.7,0,0,0,0-.52.62.62,0,0,0-.37-.37,3.55,3.55,0,0,0-.63-.2,3.82,3.82,0,0,0-.68-.06H892.7a2.07,2.07,0,0,1-2.05-2.06v-5.48a2,2,0,0,1,2.05-2.05h5.48a3.41,3.41,0,0,0,3.42-3.42v-5.48h-.06a3.45,3.45,0,0,0-3.43-3.43H890a.68.68,0,0,0-.68.69.62.62,0,0,0,.2.48.66.66,0,0,0,.48.2h8.22a2.07,2.07,0,0,1,2,2.06h.07v5.48a2,2,0,0,1-2.05,2H892.7a3.41,3.41,0,0,0-3.42,3.42v5.48a3.27,3.27,0,0,0,1,2.42,3.31,3.31,0,0,0,2.42,1h5.48a2,2,0,0,1,.41,0,1.82,1.82,0,0,1,.38.11A.63.63,0,0,0,899.23,1444.25Z"/><path class="cls-15" d="M920.1,1445.42a2,2,0,0,1-1.46-.6,2,2,0,0,1-.6-1.45v-19.18H918a.63.63,0,0,0-.21-.48.61.61,0,0,0-.48-.21h-8.14a2,2,0,0,1-1.46-.6,2,2,0,0,1-.6-1.45,2,2,0,0,1,2.06-2.06h8.22a4.82,4.82,0,0,1,4.73,4.8h.06v19.18a2,2,0,0,1-2,2.05Zm0-1.37a.66.66,0,0,0,.48-.2.69.69,0,0,0,.2-.48v-19.18h-.07a3.43,3.43,0,0,0-3.42-3.43h-8.15a.66.66,0,0,0-.48.2.67.67,0,0,0-.21.49.63.63,0,0,0,.21.48.66.66,0,0,0,.48.2h8.22a2.07,2.07,0,0,1,2,2.06h.07v19.18a.69.69,0,0,0,.2.48A.68.68,0,0,0,920.1,1444.05Z"/><rect class="cls-18" x="832.14" y="1457.73" width="6.22" height="6.22" rx="0.78"/><rect class="cls-18" x="848.87" y="1457.73" width="6.22" height="6.22" rx="0.78"/><rect class="cls-18" x="865.61" y="1457.73" width="6.22" height="6.22" rx="0.78"/><rect class="cls-18" x="882.34" y="1457.73" width="6.22" height="6.22" rx="0.78"/><rect class="cls-18" x="899.08" y="1457.73" width="6.22" height="6.22" rx="0.78"/><rect class="cls-6" x="575.91" y="421.7" width="9.95" height="779.74"/><rect class="cls-6" x="846.27" y="921.14" width="9.95" height="550.66" transform="translate(2047.71 345.22) rotate(90)"/><rect class="cls-4" x="1217.67" y="584.59" width="170.79" height="232.34"/><rect class="cls-6" x="1242.94" y="613.82" width="120.25" height="173.89"/><rect class="cls-4" x="1444.33" y="751.49" width="270.54" height="232.34"/><rect class="cls-6" x="1470.84" y="780.71" width="217.52" height="173.89"/><g class="cls-21"><polygon class="cls-22" points="1218.95 1048.01 1317.84 1359.86 1767.41 1360.36 1297.19 947.98 1218.95 1048.01"/></g><path class="cls-14" d="M1214.21,1312.82h8.22a.89.89,0,0,1,.89.89V1344a.89.89,0,0,1-.89.89h-8.22a.89.89,0,0,1-.89-.89v-30.3A.88.88,0,0,1,1214.21,1312.82Z" transform="translate(2436.65 2657.71) rotate(180)"/><path class="cls-8" d="M1124.34,959.8c6-12.38,14-20.16,23.74-23.12,15-4.57,29.35,3.62,29.5,3.71l4.71-8.11c-.73-.42-18.06-10.31-36.94-4.57-12.33,3.75-22.23,13.17-29.44,28Z"/><path class="cls-14" d="M1187.49,920.86l53.5,35.53a3.13,3.13,0,0,1,.87,4.33l-16,24.14a3.12,3.12,0,0,1-4.33.88L1168,950.2a3.12,3.12,0,0,1-.88-4.33l16-24.14A3.12,3.12,0,0,1,1187.49,920.86Z"/><path class="cls-4" d="M1290.27,940.64,1219,1048a64.45,64.45,0,0,1,71.32-107.37Z"/><path class="cls-14" d="M1052.06,1151.53l52.77-200.59,30.73,8.08-52.77,200.6Zm59.74-188.64L1064,1144.56l11.81,3.11L1123.61,966Z"/><path class="cls-14" d="M1050.75,1161l30.08-10.27,67,196.29-30.08,10.27Zm24,2.15-11.56,3.95,60.71,177.77,11.56-4Z"/><path class="cls-8" d="M1215.09,1055.4l6.74,4.47a.87.87,0,0,0,1.21-.25l79.52-119.72a.87.87,0,0,0-.24-1.21l-6.74-4.47a.86.86,0,0,0-1.2.24l-79.53,119.73A.88.88,0,0,0,1215.09,1055.4Z"/><path class="cls-15" d="M1046.55,1159.48a23.18,23.18,0,1,0,23.17-23.18A23.17,23.17,0,0,0,1046.55,1159.48Z"/><path class="cls-4" d="M1072.59,1328.12H1288.1a0,0,0,0,1,0,0v26.12a5.63,5.63,0,0,1-5.63,5.63H1078.21a5.63,5.63,0,0,1-5.63-5.63v-26.12A0,0,0,0,1,1072.59,1328.12Z" transform="translate(2360.69 2687.98) rotate(180)"/><rect class="cls-4" x="539.53" y="700.77" width="609.57" height="21.59"/><g class="cls-23"><circle class="cls-10" cx="983.21" cy="540.31" r="68.85"/></g><g class="cls-23"><path class="cls-10" d="M1021.23,482.92a68.84,68.84,0,0,1-95.41,95.41,68.84,68.84,0,1,0,95.41-95.41Z"/></g><path class="cls-16" d="M664.05,1067.39c8.82,0,8.83-13.71,0-13.71s-8.84,13.71,0,13.71Z"/><path class="cls-16" d="M814.49,921.16c8.82,0,8.84-13.71,0-13.71s-8.83,13.71,0,13.71Z"/><path class="cls-16" d="M1049.29,829.77c8.82,0,8.84-13.71,0-13.71s-8.83,13.71,0,13.71Z"/><path class="cls-16" d="M672.48,526.08c8.82,0,8.84-13.71,0-13.71s-8.83,13.71,0,13.71Z"/><path class="cls-16" d="M820.12,642.77c8.82,0,8.83-13.71,0-13.71s-8.84,13.71,0,13.71Z"/><path class="cls-16" d="M995.87,1092.7c8.82,0,8.83-13.71,0-13.71s-8.84,13.71,0,13.71Z"/><path class="cls-16" d="M648.58,838.21c8.82,0,8.84-13.71,0-13.71s-8.83,13.71,0,13.71Z"/><path class="cls-16" d="M716.07,920.28c4.07,0,4.08-6.32,0-6.32s-4.08,6.32,0,6.32Z"/><path class="cls-16" d="M828.55,830.3c4.07,0,4.08-6.33,0-6.33s-4.08,6.33,0,6.33Z"/><path class="cls-16" d="M959.31,937.16c4.07,0,4.08-6.33,0-6.33s-4.08,6.33,0,6.33Z"/><path class="cls-16" d="M846.83,1124.16c4.07,0,4.08-6.33,0-6.33s-4.08,6.33,0,6.33Z"/><path class="cls-16" d="M672.48,1146.65c4.08,0,4.08-6.33,0-6.33s-4.07,6.33,0,6.33Z"/><path class="cls-16" d="M711.85,640.49c4.07,0,4.08-6.33,0-6.33s-4.08,6.33,0,6.33Z"/><path class="cls-16" d="M830,476c4.07,0,4.07-6.33,0-6.33s-4.08,6.33,0,6.33Z"/><path class="cls-16" d="M1083,647.52c4.07,0,4.08-6.33,0-6.33s-4.08,6.33,0,6.33Z"/><path class="cls-16" d="M925.57,661.58c4.07,0,4.07-6.33,0-6.33s-4.08,6.33,0,6.33Z"/><path class="cls-16" d="M955.09,859.83c4.07,0,4.08-6.33,0-6.33s-4.08,6.33,0,6.33Z"/><path class="cls-16" d="M855.26,1024c5.43,0,5.44-8.44,0-8.44s-5.43,8.44,0,8.44Z"/><path class="cls-16" d="M1042.26,998.49c3.4,0,3.4-5.27,0-5.27s-3.39,5.27,0,5.27Z"/></g><g id="Layer_2" data-name="Layer 2"><rect class="cls-24" x="425.89" y="281.47" width="2394.18" height="2000.9"/><rect class="cls-25" x="270.01" y="135.85" width="2394.18" height="2000.9"/></g></g></svg>